<?xml version="1.0" encoding="UTF-8"?>
<svg xmlns="http://www.w3.org/2000/svg" version="1.1" viewBox="0 0 800 800">
  <defs>
    <style>
      .cls-1 {
        fill: #fff;
      }

      .cls-1, .cls-2 {
        stroke: #000;
        stroke-miterlimit: 10;
        stroke-width: 10px;
      }

      .cls-2 {
        fill: none;
      }
    </style>
  </defs>
  <!-- Generator: Adobe Illustrator 28.6.0, SVG Export Plug-In . SVG Version: 1.2.0 Build 709)  -->
  <g>
    <g id="Layer_1">
      <g id="Layer_1-2" data-name="Layer_1">
        <path class="cls-2" d="M367.3,695h-85.4c-4.8,0-9-3.3-10.1-8l-17.6-75.1c-1.1-4.7-5.3-8-10.1-8h-106.5c-4.8,0-9,3.3-10.1,8l-17.6,75.1c-1.1,4.7-5.3,8-10.1,8H16.6c-7,0-12-6.7-9.9-13.4l122.2-403.2c1.3-4.4,5.4-7.4,9.9-7.4h106.9c4.6,0,8.6,3,9.9,7.4l121.6,403.2c2,6.7-3,13.4-10,13.4h.1ZM231.4,517.6l-30.8-130.2c-2.5-10.7-17.7-10.7-20.2,0l-30.4,130.2c-1.5,6.5,3.4,12.8,10.1,12.8h61.2c6.7,0,11.7-6.3,10.1-12.8h0Z"/>
        <path d="M782.3,700.3h-119.6c-6.8,0-12.6-4.6-14.2-11.2l-24.7-105.2c-1.5-6.6-7.4-11.2-14.2-11.2h-149.1c-6.8,0-12.6,4.6-14.2,11.2l-24.7,105.2c-1.5,6.6-7.4,11.2-14.2,11.2h-116.2c-9.8,0-16.8-9.4-13.9-18.8L448.4,117c1.9-6.1,7.5-10.3,13.9-10.3h149.7c6.4,0,12.1,4.2,13.9,10.3l170.3,564.5c2.8,9.3-4.2,18.8-13.9,18.8h0ZM598.1,454.8l-44.4-187.5c-3.6-15.4-25.5-15.3-29.1,0l-43.8,187.5c-2.2,9.4,4.9,18.4,14.6,18.4h88.2c9.7,0,16.8-9,14.6-18.4h0Z"/>
      </g>
      <g>
        <path class="cls-1" d="M163.9,181.6h-60.3l-8.4,28.4h-54.2L105.6,38.2h57.9l64.6,171.8h-55.6l-8.6-28.4ZM152.9,144.5l-19-61.8-18.8,61.8h37.7Z"/>
        <path class="cls-1" d="M348.5,38.2h53v102.4c0,10.1-1.6,19.7-4.7,28.7-3.2,9-8.1,16.9-14.9,23.7-6.8,6.8-13.8,11.5-21.3,14.2-10.3,3.8-22.7,5.7-37.1,5.7s-17.5-.6-27.4-1.8c-9.9-1.2-18.1-3.5-24.8-7-6.6-3.5-12.7-8.4-18.2-14.8s-9.3-13-11.3-19.8c-3.3-10.9-4.9-20.6-4.9-29V38.2h53v104.8c0,9.4,2.6,16.7,7.8,22,5.2,5.3,12.4,7.9,21.6,7.9s16.3-2.6,21.5-7.8c5.2-5.2,7.8-12.5,7.8-22.1V38.2Z"/>
        <path class="cls-1" d="M424.6,38.2h161.4v42.4h-54.1v129.4h-53.1V80.6h-54.1v-42.4Z"/>
        <path class="cls-1" d="M595.1,124.2c0-28,7.8-49.9,23.4-65.5,15.6-15.6,37.4-23.4,65.3-23.4s50.6,7.7,66.1,23,23.2,36.9,23.2,64.5-3.4,36.5-10.1,49.4c-6.8,12.9-16.5,22.9-29.3,30s-28.7,10.7-47.8,10.7-35.4-3.1-48.1-9.3c-12.7-6.2-23-15.9-30.9-29.3-7.9-13.4-11.8-30.1-11.8-50.2ZM648.2,124.5c0,17.3,3.2,29.8,9.7,37.4,6.4,7.6,15.2,11.4,26.3,11.4s20.2-3.7,26.5-11.1c6.2-7.4,9.4-20.7,9.4-40s-3.3-28-9.8-35.4c-6.5-7.5-15.4-11.2-26.5-11.2s-19.3,3.8-25.8,11.4c-6.5,7.6-9.7,20.1-9.7,37.6Z"/>
      </g>
      <g>
        <path class="cls-1" d="M114,346l50.5-3.2c1.1,8.2,3.3,14.5,6.7,18.8,5.5,7,13.3,10.4,23.4,10.4s13.4-1.8,17.5-5.3c4.1-3.6,6.2-7.7,6.2-12.4s-2-8.4-5.9-12c-3.9-3.5-13-6.8-27.2-10-23.3-5.2-39.9-12.2-49.8-20.9-10-8.7-15-19.7-15-33.2s2.6-17.2,7.7-25c5.1-7.9,12.8-14,23.1-18.5,10.3-4.5,24.4-6.7,42.2-6.7s38.7,4.1,50.2,12.2c11.5,8.2,18.4,21.2,20.6,39l-50,2.9c-1.3-7.7-4.1-13.4-8.4-16.9-4.3-3.5-10.1-5.3-17.6-5.3s-10.8,1.3-13.9,3.9c-3.1,2.6-4.7,5.8-4.7,9.6s1.3,5.2,3.9,7.4c2.5,2.3,8.4,4.4,17.8,6.3,23.2,5,39.8,10.1,49.9,15.2,10,5.1,17.3,11.5,21.9,19,4.6,7.6,6.9,16.1,6.9,25.4s-3,21.2-9.1,30.5c-6.1,9.3-14.6,16.3-25.5,21.2-10.9,4.8-24.7,7.2-41.4,7.2-29.2,0-49.5-5.6-60.7-16.9s-17.6-25.5-19.1-42.9Z"/>
        <path class="cls-1" d="M298.7,231.1h53.2v171.8h-53.2v-171.8Z"/>
        <path class="cls-1" d="M385.7,231.1h150.2v34.3l-96.4,100.5h100v36.9h-163v-35.6l95.4-99.5h-86.2v-36.7Z"/>
        <path class="cls-1" d="M563.2,231.1h142.3v36.7h-89.1v27.3h82.6v35h-82.6v33.9h91.6v38.9h-144.8v-171.8Z"/>
      </g>
    </g>
  </g>
</svg>