<?xml version="1.0" encoding="UTF-8"?>
<svg xmlns="http://www.w3.org/2000/svg" version="1.1" viewBox="0 0 800 800">
  <defs>
    <style>
      .cls-1 {
        fill: #fff;
        stroke-width: 5px;
      }

      .cls-1, .cls-2 {
        stroke: #000;
        stroke-miterlimit: 10;
      }

      .cls-2 {
        fill: none;
        stroke-width: 10px;
      }
    </style>
  </defs>
  <!-- Generator: Adobe Illustrator 28.6.0, SVG Export Plug-In . SVG Version: 1.2.0 Build 709)  -->
  <g>
    <g id="Layer_1">
      <g id="Layer_1-2" data-name="Layer_1">
        <path class="cls-2" d="M367.3,695h-85.4c-4.8,0-9-3.3-10.1-8l-17.6-75.1c-1.1-4.7-5.3-8-10.1-8h-106.5c-4.8,0-9,3.3-10.1,8l-17.6,75.1c-1.1,4.7-5.3,8-10.1,8H16.6c-7,0-12-6.7-9.9-13.4l122.2-403.2c1.3-4.4,5.4-7.4,9.9-7.4h106.9c4.6,0,8.6,3,9.9,7.4l121.6,403.2c2,6.7-3,13.4-10,13.4h.1ZM231.4,517.6l-30.8-130.2c-2.5-10.7-17.7-10.7-20.2,0l-30.4,130.2c-1.5,6.5,3.4,12.8,10.1,12.8h61.2c6.7,0,11.7-6.3,10.1-12.8h0Z"/>
        <path d="M782.3,700.3h-119.6c-6.8,0-12.6-4.6-14.2-11.2l-24.7-105.2c-1.5-6.6-7.4-11.2-14.2-11.2h-149.1c-6.8,0-12.6,4.6-14.2,11.2l-24.7,105.2c-1.5,6.6-7.4,11.2-14.2,11.2h-116.2c-9.8,0-16.8-9.4-13.9-18.8L448.4,117c1.9-6.1,7.5-10.3,13.9-10.3h149.7c6.4,0,12.1,4.2,13.9,10.3l170.3,564.5c2.8,9.3-4.2,18.8-13.9,18.8h0ZM598.1,454.8l-44.4-187.5c-3.6-15.4-25.5-15.3-29.1,0l-43.8,187.5c-2.2,9.4,4.9,18.4,14.6,18.4h88.2c9.7,0,16.8-9,14.6-18.4h0Z"/>
      </g>
      <g>
        <path class="cls-1" d="M85,138.6h-34.3l-4.8,16.1H15.2L51.9,57h32.9l36.7,97.7h-31.6l-4.9-16.1ZM78.7,117.5l-10.8-35.1-10.7,35.1h21.4Z"/>
        <path class="cls-1" d="M190,57h30.1v58.2c0,5.8-.9,11.2-2.7,16.3-1.8,5.1-4.6,9.6-8.5,13.4-3.8,3.8-7.9,6.5-12.1,8.1-5.9,2.2-12.9,3.3-21.1,3.3s-9.9-.3-15.6-1c-5.6-.7-10.3-2-14.1-4-3.8-2-7.2-4.8-10.4-8.4s-5.3-7.4-6.4-11.3c-1.9-6.2-2.8-11.7-2.8-16.5v-58.2h30.1v59.6c0,5.3,1.5,9.5,4.4,12.5,3,3,7,4.5,12.3,4.5s9.3-1.5,12.2-4.4c3-3,4.4-7.1,4.4-12.5v-59.6Z"/>
        <path class="cls-1" d="M233.2,57h91.7v24.1h-30.8v73.5h-30.2v-73.5h-30.8v-24.1Z"/>
        <path class="cls-1" d="M330.1,105.9c0-15.9,4.4-28.4,13.3-37.2s21.3-13.3,37.1-13.3,28.8,4.4,37.6,13.1,13.2,21,13.2,36.7-1.9,20.8-5.8,28.1c-3.8,7.3-9.4,13-16.7,17.1-7.3,4.1-16.3,6.1-27.1,6.1s-20.1-1.8-27.3-5.3c-7.2-3.5-13.1-9.1-17.6-16.7-4.5-7.6-6.7-17.1-6.7-28.5ZM360.3,106.1c0,9.9,1.8,16.9,5.5,21.3,3.7,4.3,8.6,6.5,15,6.5s11.5-2.1,15.1-6.3c3.6-4.2,5.3-11.8,5.3-22.7s-1.9-15.9-5.6-20.2c-3.7-4.2-8.7-6.4-15.1-6.4s-11,2.2-14.7,6.5c-3.7,4.3-5.5,11.4-5.5,21.4Z"/>
        <path class="cls-1" d="M442.3,122.4l28.7-1.8c.6,4.7,1.9,8.2,3.8,10.7,3.1,4,7.5,5.9,13.3,5.9s7.6-1,10-3c2.3-2,3.5-4.4,3.5-7s-1.1-4.8-3.3-6.8c-2.2-2-7.4-3.9-15.5-5.7-13.2-3-22.7-6.9-28.3-11.9-5.7-4.9-8.5-11.2-8.5-18.9s1.5-9.8,4.4-14.2c2.9-4.5,7.3-8,13.1-10.5,5.8-2.6,13.8-3.8,24-3.8s22,2.3,28.5,7c6.6,4.6,10.4,12,11.7,22.1l-28.4,1.7c-.8-4.4-2.3-7.6-4.8-9.6-2.4-2-5.8-3-10-3s-6.2.7-7.9,2.2c-1.8,1.5-2.7,3.3-2.7,5.4s.7,3,2.2,4.2c1.4,1.3,4.8,2.5,10.1,3.6,13.2,2.8,22.6,5.7,28.3,8.6,5.7,2.9,9.9,6.5,12.5,10.8,2.6,4.3,3.9,9.1,3.9,14.5s-1.7,12-5.2,17.3c-3.5,5.3-8.3,9.3-14.5,12-6.2,2.7-14.1,4.1-23.5,4.1-16.6,0-28.1-3.2-34.5-9.6-6.4-6.4-10-14.5-10.9-24.4Z"/>
        <path class="cls-1" d="M547.3,57h30.2v97.7h-30.2V57Z"/>
        <path class="cls-1" d="M596.7,57h85.4v19.5l-54.8,57.2h56.8v21h-92.7v-20.3l54.2-56.6h-49v-20.9Z"/>
        <path class="cls-1" d="M697.6,57h80.9v20.9h-50.6v15.5h47v19.9h-47v19.3h52.1v22.1h-82.3V57Z"/>
      </g>
    </g>
  </g>
</svg>