<?xml version="1.0" encoding="UTF-8"?>
<svg xmlns="http://www.w3.org/2000/svg" version="1.1" viewBox="0 0 800 800">
  <defs>
    <style>
      .cls-1 {
        isolation: isolate;
        stroke-miterlimit: 133.3;
        stroke-width: 20px;
      }

      .cls-1, .cls-2 {
        fill: none;
        stroke: #000;
      }

      .cls-3 {
        fill: #fff;
      }

      .cls-2 {
        stroke-miterlimit: 10;
        stroke-width: 10px;
      }
    </style>
  </defs>
  <!-- Generator: Adobe Illustrator 28.6.0, SVG Export Plug-In . SVG Version: 1.2.0 Build 709)  -->
  <g>
    <g id="Layer_1">
      <path class="cls-2" d="M367.3,695h-85.4c-4.8,0-9-3.3-10.1-8l-17.6-75.1c-1.1-4.7-5.3-8-10.1-8h-106.5c-4.8,0-9,3.3-10.1,8l-17.6,75.1c-1.1,4.7-5.3,8-10.1,8H16.6c-7,0-12-6.7-9.9-13.4l122.2-403.2c1.3-4.4,5.4-7.4,9.9-7.4h106.9c4.6,0,8.6,3,9.9,7.4l121.6,403.2c2,6.7-3,13.4-10,13.4h0ZM231.4,517.6l-30.8-130.2c-2.5-10.7-17.7-10.7-20.2,0l-30.4,130.2c-1.5,6.5,3.4,12.8,10.1,12.8h61.2c6.7,0,11.7-6.3,10.1-12.8h0Z"/>
      <path d="M782.3,700.3h-119.6c-6.8,0-12.6-4.6-14.2-11.2l-24.7-105.2c-1.5-6.6-7.4-11.2-14.2-11.2h-149.1c-6.8,0-12.6,4.6-14.2,11.2l-24.7,105.2c-1.5,6.6-7.4,11.2-14.2,11.2h-116.2c-9.8,0-16.8-9.4-13.9-18.8L448.4,117c1.9-6.1,7.5-10.3,13.9-10.3h149.7c6.4,0,12.1,4.2,13.9,10.3l170.3,564.5c2.8,9.3-4.2,18.8-13.9,18.8h0ZM598.1,454.8l-44.4-187.5c-3.6-15.4-25.5-15.3-29.1,0l-43.8,187.5c-2.2,9.4,4.9,18.4,14.6,18.4h88.2c9.7,0,16.8-9,14.6-18.4h0Z"/>
      <circle class="cls-3" cx="615.2" cy="184.8" r="180.5"/>
      <path d="M519.9,172.4h-15.7,15.7ZM519.9,191.8l-11.7,10.4c2.8,3.2,6.8,5.1,11.1,5.3,4.3.2,8.4-1.4,11.5-4.4l-10.9-11.3ZM564.7,170.5c6.3-6,6.5-15.9.5-22.2-6-6.3-15.9-6.5-22.2-.5l21.7,22.7ZM502.8,148.8c-5.7-6.5-15.7-7.1-22.2-1.3-6.5,5.7-7.1,15.7-1.3,22.2l23.5-20.8ZM678,117.6c5.9,6.4,15.8,6.7,22.2.9,6.4-5.9,6.8-15.8.9-22.2l-23,21.3ZM617.5,59.8c-62.5,0-113.3,50.3-113.3,112.6h31.4c0-44.7,36.6-81.2,81.9-81.2v-31.4ZM504.2,172.4v19.4h31.4v-19.4h-31.4ZM530.7,203.1l34-32.6-21.7-22.7-34,32.6,21.7,22.7ZM531.6,181.4l-28.8-32.6-23.5,20.8,28.8,32.6,23.5-20.8ZM701,96.2c-20.7-22.4-50.5-36.4-83.5-36.4v31.4c23.9,0,45.4,10.2,60.4,26.4l23-21.3Z"/>
      <path d="M713.3,168.5l11.7-10.4c-2.8-3.2-6.8-5.1-11.1-5.3-4.3-.2-8.4,1.4-11.5,4.4l10.9,11.3ZM668.5,189.7c-6.3,6-6.5,15.9-.4,22.2,6,6.3,15.9,6.5,22.2.4l-21.7-22.6ZM730.4,211.5c5.8,6.5,15.7,7.1,22.2,1.3,6.5-5.8,7.1-15.7,1.3-22.2l-23.5,20.8ZM554.8,243c-5.9-6.3-15.9-6.6-22.2-.7-6.3,5.9-6.6,15.9-.7,22.2l22.9-21.5ZM615.2,300.5c62.6,0,113.7-50.2,113.7-112.6h-31.4c0,44.7-36.7,81.2-82.3,81.2v31.4ZM729,187.9v-19.4h-31.4v19.4h31.4ZM702.4,157.2l-33.9,32.5,21.7,22.6,33.9-32.5-21.7-22.6ZM701.5,178.9l28.9,32.5,23.5-20.8-28.9-32.5-23.5,20.8ZM531.9,264.5c20.8,22.1,50.4,36,83.3,36v-31.4c-23.9,0-45.4-10-60.4-26.1l-22.9,21.5Z"/>
      <circle class="cls-1" cx="616.6" cy="180.1" r="157.5"/>
    </g>
  </g>
</svg>