<?xml version="1.0" encoding="UTF-8"?>
<svg xmlns="http://www.w3.org/2000/svg" version="1.1" viewBox="0 0 800 800">
  <defs>
    <style>
      .cls-1 {
        fill: #fff;
      }

      .cls-2 {
        fill: none;
        stroke: #000;
        stroke-miterlimit: 10;
        stroke-width: 10px;
      }
    </style>
  </defs>
  <!-- Generator: Adobe Illustrator 28.6.0, SVG Export Plug-In . SVG Version: 1.2.0 Build 709)  -->
  <g>
    <g id="Layer_1">
      <path class="cls-2" d="M367.3,695h-85.4c-4.8,0-9-3.3-10.1-8l-17.6-75.1c-1.1-4.7-5.3-8-10.1-8h-106.5c-4.8,0-9,3.3-10.1,8l-17.6,75.1c-1.1,4.7-5.3,8-10.1,8H16.6c-7,0-12-6.7-9.9-13.4l122.2-403.2c1.3-4.4,5.4-7.4,9.9-7.4h106.9c4.6,0,8.6,3,9.9,7.4l121.6,403.2c2,6.7-3,13.4-10,13.4h0ZM231.4,517.6l-30.8-130.2c-2.5-10.7-17.7-10.7-20.2,0l-30.4,130.2c-1.5,6.5,3.4,12.8,10.1,12.8h61.2c6.7,0,11.7-6.3,10.1-12.8h0Z"/>
      <path d="M782.3,700.3h-119.6c-6.8,0-12.6-4.6-14.2-11.2l-24.7-105.2c-1.5-6.6-7.4-11.2-14.2-11.2h-149.1c-6.8,0-12.6,4.6-14.2,11.2l-24.7,105.2c-1.5,6.6-7.4,11.2-14.2,11.2h-116.2c-9.8,0-16.8-9.4-13.9-18.8L448.4,117c1.9-6.1,7.5-10.3,13.9-10.3h149.7c6.4,0,12.1,4.2,13.9,10.3l170.3,564.5c2.8,9.3-4.2,18.8-13.9,18.8h0ZM598.1,454.8l-44.4-187.5c-3.6-15.4-25.5-15.3-29.1,0l-43.8,187.5c-2.2,9.4,4.9,18.4,14.6,18.4h88.2c9.7,0,16.8-9,14.6-18.4h0Z"/>
      <circle class="cls-1" cx="608.2" cy="183.9" r="182.1"/>
      <path d="M490.8,160.9h-19.8,19.8ZM490.8,185.3l-14.8,13.1c3.6,4,8.6,6.4,14,6.6,5.4.2,10.6-1.8,14.5-5.5l-13.7-14.3ZM547.2,158.6c7.9-7.6,8.1-20.1.6-27.9-7.6-7.9-20.1-8.1-27.9-.6l27.3,28.5ZM469.3,131.2c-7.2-8.2-19.7-8.9-27.9-1.7-8.2,7.2-8.9,19.7-1.7,27.9l29.6-26.2ZM689.8,91.9c7.4,8,19.9,8.5,27.9,1.1,8-7.4,8.5-19.9,1.1-27.9l-29,26.8ZM613.7,19.2c-78.7,0-142.7,63.3-142.7,141.7h39.5c0-56.3,46-102.2,103.2-102.2V19.2ZM471,160.9v24.4h39.5v-24.4h-39.5ZM504.4,199.6l42.7-41-27.3-28.5-42.7,41,27.3,28.5ZM505.6,172.2l-36.3-41-29.6,26.2,36.3,41,29.6-26.2ZM718.8,65.1c-26.1-28.2-63.5-45.9-105.1-45.9v39.5c30.1,0,57.2,12.8,76.1,33.2l29-26.8Z"/>
      <path d="M734.2,156.1l14.8-13.1c-3.6-4-8.6-6.4-14-6.6-5.4-.2-10.6,1.8-14.5,5.5l13.7,14.2ZM677.9,182.8c-7.9,7.6-8.1,20.1-.6,27.9,7.6,7.9,20.1,8.1,27.9.6l-27.4-28.5ZM755.8,210.1c7.2,8.2,19.7,8.9,27.9,1.6,8.2-7.2,8.9-19.7,1.6-27.9l-29.5,26.2ZM534.7,249.8c-7.5-8-20-8.4-27.9-.9-8,7.5-8.4,20-.9,27.9l28.8-27ZM610.8,322.2c78.8,0,143.2-63.2,143.2-141.7h-39.5c0,56.2-46.2,102.2-103.6,102.2v39.5ZM754,180.4v-24.4h-39.5v24.4h39.5ZM720.5,141.8l-42.6,41,27.4,28.5,42.6-41-27.4-28.5ZM719.5,169.2l36.4,41,29.5-26.2-36.4-41-29.5,26.2ZM505.9,276.9c26.1,27.9,63.5,45.3,104.9,45.3v-39.5c-30.1,0-57.1-12.6-76.1-32.8l-28.8,27Z"/>
    </g>
  </g>
</svg>