<?xml version="1.0" encoding="UTF-8"?>
<svg xmlns="http://www.w3.org/2000/svg" version="1.1" viewBox="0 0 800 800">
  <defs>
    <style>
      .cls-1 {
        fill: #bfbfbf;
      }

      .cls-1, .cls-2 {
        stroke: #000;
        stroke-miterlimit: 10;
        stroke-width: 10px;
      }

      .cls-2 {
        fill: #fff;
      }
    </style>
  </defs>
  <!-- Generator: Adobe Illustrator 28.6.0, SVG Export Plug-In . SVG Version: 1.2.0 Build 709)  -->
  <g>
    <g id="Layer_1">
      <path class="cls-1" d="M341.7,695h-78.6c-4.4,0-8.3-3-9.3-7.4l-16.2-69.1c-1-4.3-4.9-7.4-9.3-7.4h-98c-4.4,0-8.3,3-9.3,7.4l-16.2,69.1c-1,4.3-4.9,7.4-9.3,7.4H19.1c-6.4,0-11-6.2-9.1-12.3l112.4-370.9c1.2-4,5-6.8,9.1-6.8h98.3c4.2,0,7.9,2.8,9.1,6.8l111.8,370.9c1.8,6.2-2.8,12.3-9.2,12.3h0ZM216.7,531.8l-28.3-119.8c-2.3-9.8-16.3-9.8-18.6,0l-28,119.8c-1.4,6,3.1,11.8,9.3,11.8h56.3c6.2,0,10.8-5.8,9.3-11.8h0Z"/>
      <path d="M782.3,700.3h-119.6c-6.8,0-12.6-4.6-14.2-11.2l-24.7-105.2c-1.5-6.6-7.4-11.2-14.2-11.2h-149.1c-6.8,0-12.6,4.6-14.2,11.2l-24.7,105.2c-1.5,6.6-7.4,11.2-14.2,11.2h-116.2c-9.8,0-16.8-9.4-13.9-18.8L448.4,117c1.9-6.1,7.5-10.3,13.9-10.3h149.7c6.4,0,12.1,4.2,13.9,10.3l170.3,564.5c2.8,9.3-4.2,18.8-13.9,18.8h0ZM598.1,454.8l-44.4-187.5c-3.6-15.4-25.5-15.3-29.1,0l-43.8,187.5c-2.2,9.4,4.9,18.4,14.6,18.4h88.2c9.7,0,16.8-9,14.6-18.4h0Z"/>
      <g id="AUTO">
        <g>
          <path class="cls-2" d="M140.6,254.4h-64.3l-8.9,30.2H9.6L78.4,101.4h61.8l68.9,183.2h-59.3l-9.2-30.2ZM128.9,214.8l-20.2-65.9-20,65.9h40.2Z"/>
          <path class="cls-2" d="M337.6,101.4h56.5v109.2c0,10.8-1.7,21-5.1,30.7-3.4,9.6-8.7,18-15.9,25.2-7.2,7.2-14.8,12.3-22.7,15.2-11,4.1-24.2,6.1-39.6,6.1s-18.6-.6-29.2-1.9c-10.5-1.3-19.4-3.7-26.4-7.4-7.1-3.7-13.6-9-19.4-15.8s-9.9-13.9-12.1-21.1c-3.5-11.7-5.2-22-5.2-31v-109.2h56.5v111.8c0,10,2.8,17.8,8.3,23.4,5.5,5.6,13.2,8.4,23.1,8.4s17.4-2.8,22.9-8.3c5.5-5.5,8.3-13.4,8.3-23.5v-111.8Z"/>
          <path class="cls-2" d="M418.7,101.4h172.1v45.2h-57.8v138h-56.6v-138h-57.8v-45.2Z"/>
          <path class="cls-2" d="M600.6,193.1c0-29.9,8.3-53.2,25-69.9s39.9-25,69.6-25,54,8.2,70.5,24.6,24.8,39.3,24.8,68.8-3.6,39-10.8,52.7c-7.2,13.7-17.6,24.4-31.2,32s-30.6,11.4-50.9,11.4-37.8-3.3-51.3-9.9c-13.5-6.6-24.5-17-32.9-31.2-8.4-14.2-12.6-32.1-12.6-53.5ZM657.2,193.4c0,18.5,3.4,31.8,10.3,39.9,6.9,8.1,16.2,12.1,28.1,12.1s21.6-4,28.2-11.9c6.7-7.9,10-22.1,10-42.6s-3.5-29.9-10.4-37.8c-7-8-16.4-11.9-28.3-11.9s-20.6,4-27.5,12.1c-6.9,8.1-10.4,21.5-10.4,40.1Z"/>
        </g>
      </g>
    </g>
  </g>
</svg>