<?xml version="1.0"?><!DOCTYPE svg  PUBLIC '-//W3C//DTD SVG 1.1//EN'  'http://www.w3.org/Graphics/SVG/1.1/DTD/svg11.dtd'><svg enable-background="new 0 0 26 26" id="Слой_1" version="1.1" viewBox="0 0 26 26" xml:space="preserve" xmlns="http://www.w3.org/2000/svg" xmlns:xlink="http://www.w3.org/1999/xlink"><g><path d="M24.25,12.25H1.75C1.3359375,12.25,1,12.5859375,1,13s0.3359375,0.75,0.75,0.75h22.5   c0.4140625,0,0.75-0.3359375,0.75-0.75S24.6640625,12.25,24.25,12.25z" fill="#1D1D1B"/><path d="M24.25,16.75H1.75C1.3359375,16.75,1,17.0859375,1,17.5s0.3359375,0.75,0.75,0.75h22.5   c0.4140625,0,0.75-0.3359375,0.75-0.75S24.6640625,16.75,24.25,16.75z" fill="#1D1D1B"/><path d="M24.25,21.75H1.75C1.3359375,21.75,1,22.0859375,1,22.5s0.3359375,0.75,0.75,0.75h22.5   c0.4140625,0,0.75-0.3359375,0.75-0.75S24.6640625,21.75,24.25,21.75z" fill="#1D1D1B"/><path d="M1.75,4.75h22.5C24.6640625,4.75,25,4.4140625,25,4s-0.3359375-0.75-0.75-0.75H1.75   C1.3359375,3.25,1,3.5859375,1,4S1.3359375,4.75,1.75,4.75z" fill="#1D1D1B"/><path d="M24.25,7.75H1.75C1.3359375,7.75,1,8.0859375,1,8.5s0.3359375,0.75,0.75,0.75h22.5   C24.6640625,9.25,25,8.9140625,25,8.5S24.6640625,7.75,24.25,7.75z" fill="#1D1D1B"/></g></svg>