<?xml version="1.0" encoding="UTF-8"?>
<svg xmlns="http://www.w3.org/2000/svg" version="1.1" viewBox="0 0 800 800">
  <defs>
    <style>
      .cls-1 {
        fill: #707070;
      }

      .cls-2 {
        fill: none;
        stroke: #000;
        stroke-linecap: round;
        stroke-linejoin: round;
        stroke-width: 66.7px;
      }
    </style>
  </defs>
  <!-- Generator: Adobe Illustrator 28.6.0, SVG Export Plug-In . SVG Version: 1.2.0 Build 709)  -->
  <g>
    <g id="Layer_1">
      <path d="M367.2,700.3h-86.5c-4.9,0-9.1-3.4-10.2-8.1l-17.9-76.1c-1.1-4.8-5.4-8.1-10.2-8.1h-107.8c-4.9,0-9.1,3.4-10.2,8.1l-17.9,76.1c-1.1,4.8-5.4,8.1-10.2,8.1H12.1c-7.1,0-12.1-6.8-10.1-13.6l123.7-408.2c1.3-4.4,5.4-7.5,10.1-7.5h108.3c4.6,0,8.7,3,10.1,7.5l123.1,408.2c2,6.8-3,13.6-10.1,13.6h0ZM229.6,520.7l-31.2-131.8c-2.6-10.8-18-10.8-20.5,0l-30.8,131.8c-1.5,6.6,3.5,12.9,10.2,12.9h62c6.8,0,11.8-6.3,10.2-12.9h0Z"/>
      <path class="cls-1" d="M785.3,700.3h-121.1c-6.8,0-12.8-4.7-14.3-11.4l-25-106.4c-1.6-6.7-7.5-11.4-14.3-11.4h-150.9c-6.8,0-12.8,4.7-14.3,11.4l-25,106.4c-1.6,6.7-7.5,11.4-14.3,11.4h-117.6c-9.9,0-17-9.5-14.1-19L447.4,110.1c1.9-6.2,7.6-10.5,14.1-10.5h151.5c6.5,0,12.2,4.3,14.1,10.5l172.3,571.2c2.9,9.4-4.2,19-14.1,19h0ZM592.8,449.1l-43.7-184.4c-3.6-15.1-25.1-15.1-28.7,0l-43.1,184.4c-2.2,9.2,4.9,18.1,14.3,18.1h86.8c9.5,0,16.5-8.9,14.3-18.1h0Z"/>
      <path class="cls-2" d="M745.4,191.3c.6-5.1,1-10.2,1-15.5,0-68.3-55.4-123.7-123.7-123.7s-73.2,17.7-95.9,45.5M499.9,160.4c-.6,5.1-1,10.2-1,15.5,0,68.3,55.4,123.7,123.7,123.7s70.1-16.2,92.8-41.9M669.1,253.2h46.4v4.5M526.8,52.1v45.5M526.8,97.6v.9h46.4M715.5,299.6v-41.9"/>
    </g>
  </g>
</svg>