<?xml version="1.0" encoding="UTF-8"?>
<svg xmlns="http://www.w3.org/2000/svg" version="1.1" viewBox="0 0 800 800">
  <defs>
    <style>
      .cls-1 {
        fill: none;
        stroke: #000;
        stroke-linecap: round;
        stroke-linejoin: round;
        stroke-width: 66.7px;
      }

      .cls-2 {
        fill: #a0a0a0;
      }

      .cls-3 {
        fill: #505050;
      }
    </style>
  </defs>
  <!-- Generator: Adobe Illustrator 28.6.0, SVG Export Plug-In . SVG Version: 1.2.0 Build 709)  -->
  <g>
    <g id="Layer_1">
      <path class="cls-1" d="M664.6,433.3c1.4-10.9,2.1-22,2.1-33.3,0-147.3-119.4-266.7-266.7-266.7s-157.8,38.2-206.7,98.1M135.4,366.7c-1.4,10.9-2.1,22-2.1,33.3,0,147.3,119.4,266.7,266.7,266.7s151.1-34.9,200-90.3M500,566.7h100v9.7M193.3,133.3v98.1M193.3,231.5v1.9h100M600,666.7v-90.3"/>
      <path class="cls-2" d="M392.1,518.2h-43.7c-2.5,0-4.6-1.7-5.2-4.1l-9-38.4c-.6-2.4-2.7-4.1-5.2-4.1h-54.4c-2.5,0-4.6,1.7-5.2,4.1l-9,38.4c-.6,2.4-2.7,4.1-5.2,4.1h-42.4c-3.6,0-6.1-3.4-5.1-6.9l62.4-206c.7-2.2,2.7-3.8,5.1-3.8h54.6c2.3,0,4.4,1.5,5.1,3.8l62.1,206c1,3.4-1.5,6.8-5.1,6.8h0ZM322.6,427.6l-15.8-66.5c-1.3-5.5-9.1-5.4-10.3,0l-15.5,66.5c-.8,3.3,1.8,6.5,5.2,6.5h31.3c3.4,0,6-3.2,5.2-6.5h0Z"/>
      <path class="cls-3" d="M603.1,518.2h-61.1c-3.4,0-6.4-2.4-7.2-5.7l-12.6-53.7c-.8-3.4-3.8-5.7-7.2-5.7h-76.1c-3.4,0-6.4,2.4-7.2,5.7l-12.6,53.7c-.8,3.4-3.8,5.7-7.2,5.7h-59.3c-5,0-8.6-4.8-7.1-9.6l87.4-288.3c.9-3.1,3.8-5.3,7.1-5.3h76.4c3.3,0,6.2,2.1,7.1,5.3l86.9,288.3c1.4,4.8-2.1,9.6-7.1,9.6h0ZM505.9,391.4l-22-93.1c-1.8-7.6-12.7-7.6-14.5,0l-21.7,93.1c-1.1,4.7,2.4,9.1,7.2,9.1h43.8c4.8,0,8.3-4.5,7.2-9.1h0Z"/>
    </g>
  </g>
</svg>