<?xml version="1.0" encoding="UTF-8"?>
<svg xmlns="http://www.w3.org/2000/svg" version="1.1" viewBox="0 0 800 800">
  <defs>
    <style>
      .cls-1 {
        fill: #292d32;
      }

      .cls-2 {
        fill: #fff;
      }

      .cls-3 {
        fill: none;
        stroke: #000;
        stroke-miterlimit: 10;
        stroke-width: 10px;
      }
    </style>
  </defs>
  <!-- Generator: Adobe Illustrator 28.6.0, SVG Export Plug-In . SVG Version: 1.2.0 Build 709)  -->
  <g>
    <g id="Layer_1">
      <path class="cls-3" d="M367.3,695h-85.4c-4.8,0-9-3.3-10.1-8l-17.6-75.1c-1.1-4.7-5.3-8-10.1-8h-106.5c-4.8,0-9,3.3-10.1,8l-17.6,75.1c-1.1,4.7-5.3,8-10.1,8H16.6c-7,0-12-6.7-9.9-13.4l122.2-403.2c1.3-4.4,5.4-7.4,9.9-7.4h106.9c4.6,0,8.6,3,9.9,7.4l121.6,403.2c2,6.7-3,13.4-10,13.4h0ZM231.4,517.6l-30.8-130.2c-2.5-10.7-17.7-10.7-20.2,0l-30.4,130.2c-1.5,6.5,3.4,12.8,10.1,12.8h61.2c6.7,0,11.7-6.3,10.1-12.8h0Z"/>
      <path d="M782.3,700.3h-119.6c-6.8,0-12.6-4.6-14.2-11.2l-24.7-105.2c-1.5-6.6-7.4-11.2-14.2-11.2h-149.1c-6.8,0-12.6,4.6-14.2,11.2l-24.7,105.2c-1.5,6.6-7.4,11.2-14.2,11.2h-116.2c-9.8,0-16.8-9.4-13.9-18.8L448.4,117c1.9-6.1,7.5-10.3,13.9-10.3h149.7c6.4,0,12.1,4.2,13.9,10.3l170.3,564.5c2.8,9.3-4.2,18.8-13.9,18.8h0ZM598.1,454.8l-44.4-187.5c-3.6-15.4-25.5-15.3-29.1,0l-43.8,187.5c-2.2,9.4,4.9,18.4,14.6,18.4h88.2c9.7,0,16.8-9,14.6-18.4h0Z"/>
      <rect class="cls-2" x="466" y="11.5" width="315.5" height="315.5" rx="73.6" ry="73.6"/>
      <path class="cls-1" d="M684.1,27.7h-119.6c-51.9,0-82.9,31-82.9,82.9v119.4c0,52.1,31,83,82.9,83h119.4c51.9,0,82.9-31,82.9-82.9v-119.6c.1-51.9-30.8-82.9-82.7-82.9ZM528,168.8c.4-25.1,10.4-48.8,28.1-66.5,18.3-18.3,42.5-28.2,68.2-28.2s49.9,10,68.1,28.2c.4.4.9,1,1.3,1.6v-12.3c0-5.8,4.9-10.7,10.7-10.7s10.7,4.9,10.7,10.7v37.8c0,5.8-4.9,10.7-10.7,10.7h-37.8c-5.8,0-10.7-4.9-10.7-10.7s4.9-10.7,10.7-10.7h11.8c-.4-.4-.7-.9-1.1-1.3-14.1-14.1-33-22-52.9-22s-38.8,7.8-52.9,22c-13.8,13.8-21.5,32.2-21.8,51.8-.1,5.7-5,10.4-10.8,10.4h-.1c-5.8,0-10.6-5-10.6-10.8ZM692.4,238.4c-18.1,18.1-42.4,28.2-68.1,28.2s-49.9-10-68.1-28.2c-.4-.4-.9-1-1.3-1.6v12.1c0,5.8-4.9,10.7-10.7,10.7s-10.7-4.9-10.7-10.7v-37.8c0-5.8,4.9-10.7,10.7-10.7h37.8c5.8,0,10.7,4.9,10.7,10.7s-4.9,10.7-10.7,10.7h-11.8c.4.4.7.9,1.1,1.3,14.1,14.1,33,22,52.9,22s38.8-7.8,52.9-22c14-14,21.8-32.7,21.8-52.6s4.9-10.7,10.7-10.7,10.7,4.9,10.7,10.7c0,25.8-10,49.9-28.1,67.9Z"/>
    </g>
  </g>
</svg>